<?xml version="1.0" encoding="utf-8"?>
<!-- Generator: Adobe Illustrator 13.0.0, SVG Export Plug-In  -->
<!DOCTYPE svg PUBLIC "-//W3C//DTD SVG 1.1//EN" "http://www.w3.org/Graphics/SVG/1.1/DTD/svg11.dtd" [
	<!ENTITY ns_flows "http://ns.adobe.com/Flows/1.0/">
]>
<svg version="1.1"
	 xmlns="http://www.w3.org/2000/svg" xmlns:xlink="http://www.w3.org/1999/xlink" xmlns:a="http://ns.adobe.com/AdobeSVGViewerExtensions/3.0/"
	 x="0px" y="0px" width="325px" height="51px" viewBox="7.466 19.88 325 51" enable-background="new 7.466 19.88 325 51"
	 xml:space="preserve">
<defs>
</defs>
<g>
	<defs>
		<rect id="SVGID_8_" x="16.445" y="23.454" width="305.724" height="48.348"/>
	</defs>
	<clipPath id="SVGID_9_">
		<use xlink:href="#SVGID_8_"  overflow="visible"/>
	</clipPath>
	<g clip-path="url(#SVGID_9_)">
		<defs>
			<rect id="SVGID_7_" x="16.445" y="23.454" width="305.724" height="48.348"/>
		</defs>
		<clipPath id="SVGID_10_">
			<use xlink:href="#SVGID_7_"  overflow="visible"/>
		</clipPath>
		<path clip-path="url(#SVGID_10_)" fill="#C1D7F0" d="M39.642,52.429c0-0.125,0-2.656-19.398-4.911v-1.175v-0.555
			c0.093,0,0.309,0.062,0.432,0.062C24.043,46.342,40.168,49.525,39.642,52.429 M64.261,23.455H23.488
			c-1.823,0-3.244,1.267-3.244,2.996v0.093h0.309h0.864c5.468,0.462,11.337,1.421,11.615,1.421
			c13.066,2.192,32.341,6.641,34.472,15.475V26.451C67.504,24.722,66.176,23.455,64.261,23.455 M26.731,40.566
			c-1.607-0.185-3.923-0.68-6.487-1.081v0.804v1.173c26.441,3.428,27.954,7.072,28.017,7.692
			C48.447,45.694,34.854,42.235,26.731,40.566"/>
		<path clip-path="url(#SVGID_10_)" fill="#002D55" d="M30.098,34.08c0,0-4.479-1.05-9.853-1.884v0.958v1.173
			c34.594,5.313,35.244,9.947,35.244,10.102C55.89,40.29,40.786,36.181,30.098,34.08"/>
		<path clip-path="url(#SVGID_10_)" fill="#002D55" d="M20.244,52.429v8.339v4.231c4.479-0.739,12.511-2.965,12.263-7.505
			C32.507,57.494,30.963,53.262,20.244,52.429"/>
	</g>
	<g clip-path="url(#SVGID_9_)">
		<defs>
			<path id="SVGID_6_" d="M48.261,49.245v-0.09V49.245z"/>
		</defs>
		<clipPath id="SVGID_11_">
			<use xlink:href="#SVGID_6_"  overflow="visible"/>
		</clipPath>
		
			<linearGradient id="SVGID_12_" gradientUnits="userSpaceOnUse" x1="48.2607" y1="49.2002" x2="48.2607" y2="49.2002" gradientTransform="matrix(0.001 0 0 -0.001 41.2494 47.2951)">
			<stop  offset="0" style="stop-color:#90BAE3"/>
			<stop  offset="0.4432" style="stop-color:#A8C6E8"/>
			<stop  offset="0.5" style="stop-color:#ABC8E9"/>
			<stop  offset="1" style="stop-color:#CBDCF0"/>
		</linearGradient>
		<polygon clip-path="url(#SVGID_11_)" fill="url(#SVGID_12_)" points="48.261,49.155 48.261,49.155 48.261,49.245 		"/>
	</g>
	<g clip-path="url(#SVGID_9_)">
		<defs>
			<rect id="SVGID_5_" x="16.445" y="23.454" width="305.724" height="48.348"/>
		</defs>
		<clipPath id="SVGID_13_">
			<use xlink:href="#SVGID_5_"  overflow="visible"/>
		</clipPath>
		<path clip-path="url(#SVGID_13_)" fill="#A1A0A4" d="M48.261,49.245"/>
		<path clip-path="url(#SVGID_13_)" fill="#A1A0A4" d="M55.489,44.429"/>
		<path clip-path="url(#SVGID_13_)" fill="#002D55" d="M66.515,49.245c0,0-5.622,13.715-46.271,15.878v2.286
			c0,1.699,1.422,3.243,3.244,3.243H64.26c1.916,0,3.243-1.544,3.243-3.243V46.93C67.195,47.518,66.947,48.505,66.515,49.245"/>
		<path clip-path="url(#SVGID_13_)" fill="#002D55" d="M55.489,44.429"/>
	</g>
	<g clip-path="url(#SVGID_9_)">
		<defs>
			<path id="SVGID_4_" d="M20.553,57.122c3.183,0.125,6.921-0.121,10.564-0.958c-1.39-1.324-4.386-2.902-10.564-3.396V57.122z
				 M20.245,46.097h0.308v1.111c10.781,1.297,15.599,2.779,17.854,3.736c-3.489-1.789-13.095-4.015-17.729-4.847
				c-0.864-0.248-2.008-0.341-3.429-0.496C18.361,45.756,19.226,46.097,20.245,46.097 M20.245,40.042h0.308v1.019
				c17.668,2.378,24.063,4.788,26.472,6.456c-2.408-2.07-9.606-4.324-20.293-6.456c-1.823-0.495-6.054-1.328-10.286-1.823
				C17.588,39.486,18.979,39.734,20.245,40.042 M20.245,32.813h0.308v1.421c24.588,3.676,31.97,7.042,34.102,8.959
				c-1.823-2.903-10.843-5.808-24.774-8.867c0,0-6.732-1.667-13.313-2.378C17.774,32.35,18.979,32.506,20.245,32.813 M64.261,23.794
				H23.488c-1.514,0-2.811,0.927-2.935,2.656h0.866c4.695,0.249,9.544,0.927,11.088,1.266h0.526
				c9.699,1.576,20.694,4.109,27.86,8.249c2.718-4.356,3.954-8.588,3.614-12.171H64.261z"/>
		</defs>
		<clipPath id="SVGID_14_">
			<use xlink:href="#SVGID_4_"  overflow="visible"/>
		</clipPath>
		<defs>
			<filter id="Adobe_OpacityMaskFilter" filterUnits="userSpaceOnUse" x="0" y="0" width="81.292" height="81.041">
				<feColorMatrix  type="matrix" values="1 0 0 0 0  0 1 0 0 0  0 0 1 0 0  0 0 0 1 0"/>
			</filter>
		</defs>
		<mask maskUnits="userSpaceOnUse" x="0" y="0" width="81.292" height="81.041" id="SVGID_15_">
			<g filter="url(#Adobe_OpacityMaskFilter)">
				
					<linearGradient id="SVGID_16_" gradientUnits="userSpaceOnUse" x1="7.2109" y1="71.1123" x2="8.1524" y2="71.1123" gradientTransform="matrix(-14.0728 -16.9281 -16.9281 14.0728 1357.3041 -824.4581)">
					<stop  offset="0" style="stop-color:#FFFFFF"/>
					<stop  offset="0.6795" style="stop-color:#4E4E4E"/>
					<stop  offset="1" style="stop-color:#000000"/>
				</linearGradient>
				<polygon clip-path="url(#SVGID_14_)" fill="url(#SVGID_16_)" points="36.226,81.042 0,37.466 45.066,0.001 81.292,43.577 				
					"/>
			</g>
		</mask>
		
			<linearGradient id="SVGID_17_" gradientUnits="userSpaceOnUse" x1="7.2114" y1="71.1123" x2="8.1527" y2="71.1123" gradientTransform="matrix(-14.0728 -16.9281 -16.9281 14.0728 1357.3041 -824.4581)">
			<stop  offset="0" style="stop-color:#FFFFFF"/>
			<stop  offset="1" style="stop-color:#FFFFFF"/>
		</linearGradient>
		<polygon clip-path="url(#SVGID_14_)" mask="url(#SVGID_15_)" fill="url(#SVGID_17_)" points="36.226,81.041 0,37.465 45.066,0 
			81.292,43.576 		"/>
	</g>
	<g clip-path="url(#SVGID_9_)">
		<defs>
			<rect id="SVGID_3_" x="16.445" y="23.454" width="305.724" height="48.348"/>
		</defs>
		<clipPath id="SVGID_18_">
			<use xlink:href="#SVGID_3_"  overflow="visible"/>
		</clipPath>
		<path clip-path="url(#SVGID_18_)" fill="#002D55" d="M111.858,50.014c0,0.974,0,0.974-0.471,1.414
			c-2.213,1.241-5.427,1.593-8.17,1.593c-8.551,0-16.012-4.127-16.012-13.682c0-5.485,2.742-9.259,6.074-11.293
			c3.332-1.829,6.34-2.213,9.349-2.213c2.092,0,5.306,0.384,6.073,0.501c0.472,0.208,1.769,0.472,2.685,0.472
			c0.471,0,0.471,0.119,0.471,0.267c0,0.325-0.266,1.416-0.266,5.81c0,0.382-0.205,0.707-0.324,0.707
			c-0.148,0-0.148-0.325-0.531-0.443c-0.119-0.913-0.119-1.827-1.034-2.83c-1.001-1.239-3.744-2.919-7.783-2.919
			c-1.83,0-4.395,0.323-6.813,2.27c-1.828,1.652-3.066,4.188-3.066,8.434c0,7.461,4.57,13.212,11.765,13.212
			c0.915,0,2.301,0,2.891-0.592c0.854-0.266,0.854-0.707,0.854-1.239v-3.005v-4.454c0-0.973-0.353-1.563-1.444-1.769
			c-0.413-0.178-0.854-0.178-1.563-0.178c-0.147,0-0.471,0-0.471-0.146c0-0.443,0.323-0.443,0.795-0.443
			c1.83,0,3.981,0.324,5.014,0.324c1.239,0,3.008-0.324,4.07-0.324c0.44,0,0.708,0,0.708,0.443c0,0.146-0.268,0.146-0.589,0.146
			c-0.119,0-0.326,0-0.856,0.178c-0.914,0.205-1.356,0.795-1.356,1.769v4.454V50.014z"/>
		<path clip-path="url(#SVGID_18_)" fill="#002D55" d="M117.608,41.315c0-5.16,3.392-11.5,12.858-11.5
			c7.459,0,12.355,4.246,12.355,11.028c0,6.664-5.013,12.177-12.797,12.177C121.207,53.021,117.608,46.476,117.608,41.315
			 M138.25,41.904c0-6.605-3.863-10.586-8.698-10.586c-3.51,0-7.58,1.829-7.58,9.141c0,6.017,3.391,10.854,9.172,10.854
			C133.414,51.313,138.25,50.014,138.25,41.904"/>
	</g>
	<g clip-path="url(#SVGID_9_)">
		<defs>
			<rect id="SVGID_2_" x="87.206" y="55.823" width="234.963" height="0.856"/>
		</defs>
		<clipPath id="SVGID_19_">
			<use xlink:href="#SVGID_2_"  overflow="visible"/>
		</clipPath>
		
			<radialGradient id="SVGID_20_" cx="7.4355" cy="71.2109" r="0.9416" gradientTransform="matrix(88.2294 0 0 -88.2294 -451.3214 6339.1631)" gradientUnits="userSpaceOnUse">
			<stop  offset="0" style="stop-color:#929496"/>
			<stop  offset="0.3749" style="stop-color:#939598"/>
			<stop  offset="0.5413" style="stop-color:#999A9D"/>
			<stop  offset="0.6665" style="stop-color:#A3A4A6"/>
			<stop  offset="0.7711" style="stop-color:#B2B2B4"/>
			<stop  offset="0.8627" style="stop-color:#C7C6C7"/>
			<stop  offset="0.9441" style="stop-color:#E2E1E1"/>
			<stop  offset="1" style="stop-color:#FFFFFF"/>
		</radialGradient>
		<rect x="87.206" y="55.823" clip-path="url(#SVGID_19_)" fill="url(#SVGID_20_)" width="234.963" height="0.856"/>
	</g>
	<g clip-path="url(#SVGID_9_)">
		<defs>
			<rect id="SVGID_1_" x="16.445" y="23.454" width="305.724" height="48.348"/>
		</defs>
		<clipPath id="SVGID_21_">
			<use xlink:href="#SVGID_1_"  overflow="visible"/>
		</clipPath>
		<path clip-path="url(#SVGID_21_)" fill="#002D55" d="M173.93,25.833c-0.117,0-0.441,0.383-0.589,0.383
			c-0.383,0.118-0.856,0.118-1.238,0.118h-9.024h-2.417c-1.18,0-1.887-0.118-2.743-0.118c-0.59,0-0.914,0.118-0.914,0.59
			c0,0.118,0.324,0.118,0.589,0.118c0.531,0,1.18,0,1.18,0.148c1.386,0.118,1.503,0.826,1.887,2.005v7.402v5.869
			c0,3.332,0,5.807-0.384,7.4c-0.117,0.973-0.323,1.829-1.031,2.094h-1.121c-0.207,0-0.648,0-0.648,0.178
			c0,0.323,0.442,0.649,0.855,0.649h9.642c0.354,0,0.797-0.326,0.797-0.649c0-0.178-0.118-0.178-0.797-0.178h-1.678
			c-0.975-0.265-1.123-1.121-1.123-2.094c-0.177-1.593-0.177-4.068-0.177-7.4v-2.538c0-0.473,0-0.473,0.177-0.473h4.896
			c1.238,0.149,1.71,0.738,2.034,1.239v1.063c0,0.264,0,0.708,0.266,0.708c0.472,0,0.472-0.444,0.472-0.708
			c0-0.326,0.118-1.83,0.118-2.625c0.118-1.239,0.118-1.829,0.118-2.271v-0.147c-0.236,0-0.236,0.147-0.592,0.266
			c-0.382,0.323-0.706,0.647-1.297,0.647h-1.563l-4.452,0.148c-0.177,0-0.177-0.148-0.177-0.473v-8.433
			c0-0.266,0.177-0.502,0.177-0.502l5.367,0.236c1.238,0,1.944,0.266,2.3,0.855c0.118,0.472,0.118,0.973,0.118,1.328
			c0.118,0.382,0.383,0.648,0.383,0.648c0.147,0,0.472-0.266,0.472-0.53c0-0.472,0.117-2.537,0.117-2.89
			c0-0.974,0.267-1.356,0.267-1.564C174.196,26.216,174.078,25.833,173.93,25.833"/>
		<path clip-path="url(#SVGID_21_)" fill="#002D55" d="M194.13,47.507c-0.118,0-0.53,0.53-0.53,0.53
			c0,0.649-0.324,1.444-0.708,1.977c-0.706,0.707-1.828,0.707-3.479,0.707c-2.477,0-3.393-0.266-4.039-0.707
			c-0.444-0.412-0.444-2.507-0.444-6.162V38.75v-6.341c0-0.972,0.118-1.357,1.091-1.357c0.266,0,0.65-0.263,1.12-0.263
			c0.325,0,0.649,0,0.649-0.473h-0.854h-4.307h-4.187h-0.797c0,0.473,0.146,0.473,0.678,0.473c0.236,0,0.65,0.263,1.032,0.263
			c0.796,0.267,1.119,0.385,1.119,1.357v6.341v5.102v6.162c0,0.974-0.323,1.563-0.647,1.828h-1.268c-0.236,0-0.59,0-0.59,0.178
			c0,0.323,0.354,0.649,0.59,0.649h7.991h4.512h0.914c1.622,0,1.622-0.326,2.034-0.827c0.118-1.002,0.441-3.155,0.441-3.687
			C194.453,47.833,194.453,47.507,194.13,47.507"/>
		<path clip-path="url(#SVGID_21_)" fill="#002D55" d="M211.588,30.316h-2.948h-0.533c0,0.472,0.208,0.472,0.533,0.736
			c0.708,0,0.708,0.266,0.708,0.384c0,0.53,0,0.973-0.444,1.709c-0.589,0.916-3.922,7.108-4.393,7.903
			c-0.767-0.973-4.514-7.903-5.16-8.816c-0.119-0.267-0.267-0.796-0.267-0.915c0-0.266,0.147-0.266,0.267-0.266
			c0.646-0.265,0.795-0.265,0.795-0.736h-0.648h-3.214h-3.863h-0.59c0,0.472,0.147,0.472,0.355,0.472
			c0.439,0,0.973,0.265,1.414,0.53c0.53,0.119,1.12,0.915,1.828,1.946c1.12,1.564,5.368,8.052,5.483,8.376
			c0.354,1.031,0.738,1.445,0.738,3.272v2.271v2.831c-0.266,0.974-0.384,1.563-0.975,1.828h-1.324c-0.119,0-0.267,0-0.267,0.178
			c0,0.324,0.147,0.649,0.413,0.649h8.344v-0.062c0.148,0,0.266,0.062,0.474,0.062c0.441,0,0.589-0.325,0.589-0.649
			c0-0.178,0-0.178-0.264-0.178h-1.505c-0.914-0.265-1.237-0.854-1.237-1.828c-0.326-1.12-0.326-2.299-0.326-2.831v-2.271
			c0-1.06,0-1.975,0.649-3.007c0.325-1.328,4.776-8.316,5.869-9.348c0.678-0.972,0.912-1.12,1.325-1.239
			c0.531-0.266,1.239-0.53,1.503-0.53c0.324,0,0.65-0.118,0.65-0.472h-0.65H211.588z"/>
		<path clip-path="url(#SVGID_21_)" fill="#002D55" d="M242.697,26.217c-0.59,0.118-0.914,0.118-1.268,0.118h-9.584h-1.769
			c-1.062,0-2.154-0.118-2.89-0.118c-0.768,0-0.975,0.118-0.975,0.588c0,0.119,0.207,0.119,0.708,0.119c0.412,0,1.002,0,1.444,0.148
			c1.121,0.118,1.387,0.826,1.387,2.005v7.401v5.868c0,3.333,0,5.809-0.147,7.401c-0.118,0.973-0.118,1.829-0.854,2.094h-1.418
			c-0.266,0-0.412,0-0.412,0.178c0,0.323,0.267,0.649,0.531,0.649h9.819c0.442,0,0.767-0.326,0.767-0.649
			c0-0.178-0.324-0.178-0.59-0.178h-1.621c-1.122-0.265-1.24-1.121-1.386-2.094c-0.326-1.592-0.326-4.068-0.326-7.401v-2.536
			c0-0.473,0.326-0.473,0.326-0.473h4.982c1.179,0.149,1.621,0.738,2.006,1.239v1.062c0,0.265,0,0.708,0.205,0.708
			c0.473,0,0.473-0.443,0.473-0.708v-2.624c0.323-1.24,0.442-1.83,0.442-2.271c0,0,0-0.148-0.119-0.148
			c-0.323,0-0.471,0.148-0.647,0.267c-0.354,0.323-0.738,0.647-1.444,0.647h-1.563l-4.335,0.148c-0.326,0-0.326-0.148-0.326-0.473
			v-8.434c0-0.265,0.326-0.5,0.472-0.5l5.161,0.236c1.297,0,2.035,0.265,2.212,0.855c0.147,0.472,0.147,0.974,0.147,1.327
			c0.323,0.383,0.323,0.649,0.59,0.649c0.118,0,0.118-0.266,0.118-0.53c0.323-0.472,0.323-2.536,0.323-2.89
			c0-0.975,0.266-1.356,0.266-1.564c0-0.118-0.266-0.5-0.266-0.5S242.815,26.217,242.697,26.217"/>
		<path clip-path="url(#SVGID_21_)" fill="#002D55" d="M257.059,51.842h-1.828c-0.768-0.265-1.033-0.854-1.033-1.503
			c-0.264-1.003-0.264-3.539-0.264-6.487V38.75c0-4.482,0-5.161,0.264-6.341c0-0.972,0.266-1.357,0.914-1.357
			c0.442,0,0.589-0.264,0.973-0.264s0.532,0,0.532-0.472h-0.532h-3.98h-4.127h-0.77c0,0.472,0.387,0.472,0.648,0.472
			c0.267,0,0.387,0.264,0.827,0.264c0.856,0.266,1.325,0.385,1.325,1.357v6.341v5.102v6.487c-0.322,0.974-0.469,1.238-1.325,1.503
			h-0.827c-0.262,0-0.648,0-0.648,0.178c0,0.323,0.503,0.649,0.648,0.649h8.878c0.473,0,0.531-0.326,0.531-0.649
			C257.265,51.842,257.265,51.842,257.059,51.842"/>
		<path clip-path="url(#SVGID_21_)" fill="#002D55" d="M285.04,51.842h-0.853c-0.533-0.265-1.712-0.265-3.274-2.094
			c-1.769-1.916-4.04-4.393-6.813-7.844c3.157-2.094,4.188-4.245,4.188-6.487c0-1.829-1.298-3.333-1.945-3.981
			c-1.563-1.121-3.863-1.121-5.811-1.121h-4.925h-4.038h-0.592c0,0.473,0.147,0.473,0.327,0.473c0.528,0,1.236,0.265,1.384,0.265
			c1.093,0.266,1.239,0.383,1.239,1.357v6.339v5.102v6.163c-0.146,0.974-0.146,1.563-0.855,1.828h-1.239
			c-0.264,0-0.528,0-0.528,0.178c0,0.323,0.265,0.649,0.528,0.649h8.699c0.265,0,0.503-0.326,0.503-0.649
			c0-0.178-0.238-0.178-0.385-0.178h-1.444c-0.767-0.265-1.091-0.854-1.091-1.828c-0.208-1.12-0.208-3.214-0.208-6.163v-0.325
			c0-0.325,0-0.442,0.208-0.442l2.682,0.118c0.238,0,0.444,0,0.592,0.325c0.442,0.325,1.681,2.477,3.067,3.98
			c1.416,2.241,2.534,3.806,3.832,4.335c0.855,0.501,1.593,0.827,3.333,0.827h3.096c0.322,0,0.649-0.326,0.649-0.649
			C285.367,51.842,285.16,51.842,285.04,51.842 M272.746,41.315c-0.914,0.325-1.239,0.325-2.213,0.325h-2.417
			c-0.208,0-0.208-0.325-0.208-0.591v-8.816c0-0.148,0-0.266,0.208-0.266c0.383-0.383,1.091-0.383,1.74-0.383
			c1.976,0,4.601,1.297,4.601,5.278C274.457,39.338,273.659,40.577,272.746,41.315"/>
		<path clip-path="url(#SVGID_21_)" fill="#002D55" d="M294.392,39.016l-1.297-0.916c-2.744-1.356-3.275-2.417-3.275-3.596
			c0-2.095,1.947-3.185,3.923-3.185c2.095,0,3.187,0.914,3.657,1.238c0.766,1.032,0.766,1.712,0.766,2.153
			c0,0.324,0.148,0.441,0.148,0.441c0.266,0,0.383-0.323,0.383-1.089v-3.392c0-0.354,0-0.354-0.266-0.354
			c-0.854-0.236-2.329-0.5-4.039-0.5c-4.572,0-7.786,2.417-7.786,5.868c0,2.417,1.12,4.571,4.778,6.665l1.711,0.854
			c2.595,1.711,3.007,3.274,3.007,4.305c0,2.241-1.71,3.921-4.335,3.921c-1.947,0-4.041-0.973-4.749-3.125
			c0-0.471-0.205-1.12-0.205-1.503c0,0,0-0.324-0.386-0.324c-0.147,0-0.353,0.324-0.353,0.707c0,0.324-0.117,2.299-0.117,3.805
			c0,0.854,0.117,0.854,0.47,0.854c1.299,0.826,3.247,1.179,5.074,1.179c1.594,0,3.479-0.353,4.984-1.443
			c2.094-1.563,2.948-3.421,2.948-5.426C299.434,43.526,298.313,41.315,294.392,39.016"/>
		<path clip-path="url(#SVGID_21_)" fill="#002D55" d="M321.963,30.08c-0.147,0-0.267,0-0.972,0.236h-2.184h-12.09h-3.008
			c-0.974-0.236-1.24-0.502-1.416-0.502c-0.06,0-0.324,0.266-0.324,0.502c0,0.354-0.474,3.273-0.474,3.538c0,0.415,0,0.65,0.06,0.65
			c0.267,0,0.267-0.235,0.414-0.443c0-0.473,0.265-0.473,0.5-1.063c0.267-0.589,1.24-0.766,2.891-0.766l4.511-0.148v11.767
			c0,2.948,0,5.042-0.146,6.162c-0.117,0.974-0.117,1.563-0.913,1.828h-1.032c-0.472,0-0.472,0-0.472,0.178
			c0,0.324,0.411,0.649,0.588,0.649h8.76c0.324,0,0.797-0.325,0.797-0.649c0-0.178-0.209-0.178-0.473-0.178h-1.681
			c-0.914-0.265-1.181-0.854-1.181-1.828c-0.147-1.12-0.147-3.214-0.147-6.162V32.085h3.951c2.655,0.148,3.394,0.914,3.509,1.504
			v0.473c0,0.648,0.266,0.648,0.385,0.648c0.147,0,0.147-0.206,0.147-0.648c0-0.473,0.206-2.744,0.206-3.392
			C322.169,30.316,321.963,30.08,321.963,30.08"/>
		<g clip-path="url(#SVGID_21_)">
			<text transform="matrix(1 0 0 1 91.4888 68.9697)"><tspan x="0" y="0" fill="#002D55" font-family="'MyriadPro-Semibold'" font-size="11.3326" letter-spacing="2">W</tspan><tspan x="12.114" y="0" fill="#002D55" font-family="'MyriadPro-Semibold'" font-size="11.3326" letter-spacing="2">E</tspan><tspan x="20.206" y="0" fill="#002D55" font-family="'MyriadPro-Semibold'" font-size="11.3326" letter-spacing="2"> </tspan><tspan x="24.818" y="0" fill="#002D55" font-family="'MyriadPro-Semibold'" font-size="11.3326" letter-spacing="1">C</tspan><tspan x="33.454" y="0" fill="#002D55" font-family="'MyriadPro-Semibold'" font-size="11.3326" letter-spacing="2">ON</tspan><tspan x="53.603" y="0" fill="#002D55" font-family="'MyriadPro-Semibold'" font-size="11.3326" letter-spacing="2">N</tspan><tspan x="63.53" y="0" fill="#002D55" font-family="'MyriadPro-Semibold'" font-size="11.3326" letter-spacing="2">E</tspan><tspan x="71.621" y="0" fill="#002D55" font-family="'MyriadPro-Semibold'" font-size="11.3326" letter-spacing="2">C</tspan><tspan x="80.778" y="0" fill="#002D55" font-family="'MyriadPro-Semibold'" font-size="11.3326" letter-spacing="2">T</tspan><tspan x="88.983" y="0" fill="#002D55" font-family="'MyriadPro-Semibold'" font-size="11.3326" letter-spacing="1"> Y</tspan><tspan x="101.403" y="0" fill="#002D55" font-family="'MyriadPro-Semibold'" font-size="11.3326" letter-spacing="2">O</tspan><tspan x="111.636" y="0" fill="#002D55" font-family="'MyriadPro-Semibold'" font-size="11.3326" letter-spacing="2">U</tspan><tspan x="121.45" y="0" fill="#002D55" font-family="'MyriadPro-Semibold'" font-size="11.3326" letter-spacing="1"> </tspan><tspan x="125.609" y="0" fill="#002D55" font-family="'MyriadPro-Semibold'" font-size="11.3326" letter-spacing="1">T</tspan><tspan x="133.497" y="0" fill="#002D55" font-family="'MyriadPro-Semibold'" font-size="11.3326" letter-spacing="2">O</tspan><tspan x="143.73" y="0" fill="#002D55" font-family="'MyriadPro-Semibold'" font-size="11.3326" letter-spacing="1"> </tspan><tspan x="147.888" y="0" fill="#002D55" font-family="'MyriadPro-Semibold'" font-size="11.3326" letter-spacing="2">TH</tspan><tspan x="165.963" y="0" fill="#002D55" font-family="'MyriadPro-Semibold'" font-size="11.3326" letter-spacing="2">E</tspan><tspan x="174.067" y="0" fill="#002D55" font-family="'MyriadPro-Semibold'" font-size="11.3326" letter-spacing="1"> </tspan><tspan x="178.271" y="0" fill="#002D55" font-family="'MyriadPro-Semibold'" font-size="11.3326" letter-spacing="2">W</tspan><tspan x="190.329" y="0" fill="#002D55" font-family="'MyriadPro-Semibold'" font-size="11.3326" letter-spacing="2">O</tspan><tspan x="200.562" y="0" fill="#002D55" font-family="'MyriadPro-Semibold'" font-size="11.3326" letter-spacing="2">R</tspan><tspan x="209.277" y="0" fill="#002D55" font-family="'MyriadPro-Semibold'" font-size="11.3326" letter-spacing="2">L</tspan><tspan x="217.119" y="0" fill="#002D55" font-family="'MyriadPro-Semibold'" font-size="11.3326">D</tspan></text>
		</g>
		<rect x="77.292" y="34.371" clip-path="url(#SVGID_21_)" fill="#939496" width="0.941" height="29.658"/>
	</g>
</g>
</svg>
